<?xml version="1.0" encoding="utf-8"?>
<!-- Generator: Adobe Illustrator 16.0.0, SVG Export Plug-In . SVG Version: 6.00 Build 0)  -->
<!DOCTYPE svg PUBLIC "-//W3C//DTD SVG 1.1//EN" "http://www.w3.org/Graphics/SVG/1.1/DTD/svg11.dtd">
<svg version="1.1" id="图层_1" xmlns:ev="http://www.w3.org/2001/xml-events"
	 xmlns="http://www.w3.org/2000/svg" xmlns:xlink="http://www.w3.org/1999/xlink" x="0px" y="0px" width="300px" height="300px"
	 viewBox="148 271 300 300" enable-background="new 148 271 300 300" xml:space="preserve">
<g>
	<g>
		<rect id="p_405_" x="172" y="295" width="12" height="12"/>
	</g>
	<g>
		<rect id="p_406_" x="172" y="307" width="12" height="12"/>
	</g>
	<g>
		<rect id="p_407_" x="172" y="319" width="12" height="12"/>
	</g>
	<g>
		<rect id="p_408_" x="172" y="331" width="12" height="12"/>
	</g>
	<g>
		<rect id="p_409_" x="172" y="343" width="12" height="12"/>
	</g>
	<g>
		<rect id="p_410_" x="172" y="355" width="12" height="12"/>
	</g>
	<g>
		<rect id="p_411_" x="172" y="367" width="12" height="12"/>
	</g>
	<g>
		<rect id="p_412_" x="172" y="391" width="12" height="12"/>
	</g>
	<g>
		<rect id="p_413_" x="172" y="403" width="12" height="12"/>
	</g>
	<g>
		<rect id="p_414_" x="172" y="415" width="12" height="12"/>
	</g>
	<g>
		<rect id="p_415_" x="172" y="463" width="12" height="12"/>
	</g>
	<g>
		<rect id="p_416_" x="172" y="475" width="12" height="12"/>
	</g>
	<g>
		<rect id="p_417_" x="172" y="487" width="12" height="12"/>
	</g>
	<g>
		<rect id="p_418_" x="172" y="499" width="12" height="12"/>
	</g>
	<g>
		<rect id="p_419_" x="172" y="511" width="12" height="12"/>
	</g>
	<g>
		<rect id="p_420_" x="172" y="523" width="12" height="12"/>
	</g>
	<g>
		<rect id="p_421_" x="172" y="535" width="12" height="12"/>
	</g>
	<g>
		<rect id="p_422_" x="184" y="295" width="12" height="12"/>
	</g>
	<g>
		<rect id="p_423_" x="184" y="367" width="12" height="12"/>
	</g>
	<g>
		<rect id="p_424_" x="184" y="391" width="12" height="12"/>
	</g>
	<g>
		<rect id="p_425_" x="184" y="403" width="12" height="12"/>
	</g>
	<g>
		<rect id="p_426_" x="184" y="415" width="12" height="12"/>
	</g>
	<g>
		<rect id="p_427_" x="184" y="463" width="12" height="12"/>
	</g>
	<g>
		<rect id="p_428_" x="184" y="535" width="12" height="12"/>
	</g>
	<g>
		<rect id="p_429_" x="196" y="295" width="12" height="12"/>
	</g>
	<g>
		<rect id="p_430_" x="196" y="319" width="12" height="12"/>
	</g>
	<g>
		<rect id="p_431_" x="196" y="331" width="12" height="12"/>
	</g>
	<g>
		<rect id="p_432_" x="196" y="343" width="12" height="12"/>
	</g>
	<g>
		<rect id="p_433_" x="196" y="367" width="12" height="12"/>
	</g>
	<g>
		<rect id="p_434_" x="196" y="403" width="12" height="12"/>
	</g>
	<g>
		<rect id="p_435_" x="196" y="427" width="12" height="12"/>
	</g>
	<g>
		<rect id="p_436_" x="196" y="463" width="12" height="12"/>
	</g>
	<g>
		<rect id="p_437_" x="196" y="487" width="12" height="12"/>
	</g>
	<g>
		<rect id="p_438_" x="196" y="499" width="12" height="12"/>
	</g>
	<g>
		<rect id="p_439_" x="196" y="511" width="12" height="12"/>
	</g>
	<g>
		<rect id="p_440_" x="196" y="535" width="12" height="12"/>
	</g>
	<g>
		<rect id="p_441_" x="208" y="295" width="12" height="12"/>
	</g>
	<g>
		<rect id="p_442_" x="208" y="319" width="12" height="12"/>
	</g>
	<g>
		<rect id="p_443_" x="208" y="331" width="12" height="12"/>
	</g>
	<g>
		<rect id="p_444_" x="208" y="343" width="12" height="12"/>
	</g>
	<g>
		<rect id="p_445_" x="208" y="367" width="12" height="12"/>
	</g>
	<g>
		<rect id="p_446_" x="208" y="391" width="12" height="12"/>
	</g>
	<g>
		<rect id="p_447_" x="208" y="415" width="12" height="12"/>
	</g>
	<g>
		<rect id="p_448_" x="208" y="427" width="12" height="12"/>
	</g>
	<g>
		<rect id="p_449_" x="208" y="439" width="12" height="12"/>
	</g>
	<g>
		<rect id="p_450_" x="208" y="463" width="12" height="12"/>
	</g>
	<g>
		<rect id="p_451_" x="208" y="487" width="12" height="12"/>
	</g>
	<g>
		<rect id="p_452_" x="208" y="499" width="12" height="12"/>
	</g>
	<g>
		<rect id="p_453_" x="208" y="511" width="12" height="12"/>
	</g>
	<g>
		<rect id="p_454_" x="208" y="535" width="12" height="12"/>
	</g>
	<g>
		<rect id="p_455_" x="220" y="295" width="12" height="12"/>
	</g>
	<g>
		<rect id="p_456_" x="220" y="319" width="12" height="12"/>
	</g>
	<g>
		<rect id="p_457_" x="220" y="331" width="12" height="12"/>
	</g>
	<g>
		<rect id="p_458_" x="220" y="343" width="12" height="12"/>
	</g>
	<g>
		<rect id="p_459_" x="220" y="367" width="12" height="12"/>
	</g>
	<g>
		<rect id="p_460_" x="220" y="415" width="12" height="12"/>
	</g>
	<g>
		<rect id="p_461_" x="220" y="427" width="12" height="12"/>
	</g>
	<g>
		<rect id="p_462_" x="220" y="463" width="12" height="12"/>
	</g>
	<g>
		<rect id="p_463_" x="220" y="487" width="12" height="12"/>
	</g>
	<g>
		<rect id="p_464_" x="220" y="499" width="12" height="12"/>
	</g>
	<g>
		<rect id="p_465_" x="220" y="511" width="12" height="12"/>
	</g>
	<g>
		<rect id="p_466_" x="220" y="535" width="12" height="12"/>
	</g>
	<g>
		<rect id="p_467_" x="232" y="295" width="12" height="12"/>
	</g>
	<g>
		<rect id="p_468_" x="232" y="367" width="12" height="12"/>
	</g>
	<g>
		<rect id="p_469_" x="232" y="403" width="12" height="12"/>
	</g>
	<g>
		<rect id="p_470_" x="232" y="415" width="12" height="12"/>
	</g>
	<g>
		<rect id="p_471_" x="232" y="427" width="12" height="12"/>
	</g>
	<g>
		<rect id="p_472_" x="232" y="463" width="12" height="12"/>
	</g>
	<g>
		<rect id="p_473_" x="232" y="535" width="12" height="12"/>
	</g>
	<g>
		<rect id="p_474_" x="244" y="295" width="12" height="12"/>
	</g>
	<g>
		<rect id="p_475_" x="244" y="307" width="12" height="12"/>
	</g>
	<g>
		<rect id="p_476_" x="244" y="319" width="12" height="12"/>
	</g>
	<g>
		<rect id="p_477_" x="244" y="331" width="12" height="12"/>
	</g>
	<g>
		<rect id="p_478_" x="244" y="343" width="12" height="12"/>
	</g>
	<g>
		<rect id="p_479_" x="244" y="355" width="12" height="12"/>
	</g>
	<g>
		<rect id="p_480_" x="244" y="367" width="12" height="12"/>
	</g>
	<g>
		<rect id="p_481_" x="244" y="391" width="12" height="12"/>
	</g>
	<g>
		<rect id="p_482_" x="244" y="415" width="12" height="12"/>
	</g>
	<g>
		<rect id="p_483_" x="244" y="439" width="12" height="12"/>
	</g>
	<g>
		<rect id="p_484_" x="244" y="463" width="12" height="12"/>
	</g>
	<g>
		<rect id="p_485_" x="244" y="475" width="12" height="12"/>
	</g>
	<g>
		<rect id="p_486_" x="244" y="487" width="12" height="12"/>
	</g>
	<g>
		<rect id="p_487_" x="244" y="499" width="12" height="12"/>
	</g>
	<g>
		<rect id="p_488_" x="244" y="511" width="12" height="12"/>
	</g>
	<g>
		<rect id="p_489_" x="244" y="523" width="12" height="12"/>
	</g>
	<g>
		<rect id="p_490_" x="244" y="535" width="12" height="12"/>
	</g>
	<g>
		<rect id="p_491_" x="256" y="391" width="12" height="12"/>
	</g>
	<g>
		<rect id="p_492_" x="256" y="403" width="12" height="12"/>
	</g>
	<g>
		<rect id="p_493_" x="268" y="307" width="12" height="12"/>
	</g>
	<g>
		<rect id="p_494_" x="268" y="319" width="12" height="12"/>
	</g>
	<g>
		<rect id="p_495_" x="268" y="343" width="12" height="12"/>
	</g>
	<g>
		<rect id="p_496_" x="268" y="355" width="12" height="12"/>
	</g>
	<g>
		<rect id="p_497_" x="268" y="367" width="12" height="12"/>
	</g>
	<g>
		<rect id="p_498_" x="268" y="379" width="12" height="12"/>
	</g>
	<g>
		<rect id="p_499_" x="268" y="439" width="12" height="12"/>
	</g>
	<g>
		<rect id="p_500_" x="268" y="451" width="12" height="12"/>
	</g>
	<g>
		<rect id="p_501_" x="268" y="463" width="12" height="12"/>
	</g>
	<g>
		<rect id="p_502_" x="268" y="499" width="12" height="12"/>
	</g>
	<g>
		<rect id="p_503_" x="268" y="523" width="12" height="12"/>
	</g>
	<g>
		<rect id="p_504_" x="268" y="535" width="12" height="12"/>
	</g>
	<g>
		<rect id="p_505_" x="280" y="319" width="12" height="12"/>
	</g>
	<g>
		<rect id="p_506_" x="280" y="331" width="12" height="12"/>
	</g>
	<g>
		<rect id="p_507_" x="280" y="343" width="12" height="12"/>
	</g>
	<g>
		<rect id="p_508_" x="280" y="355" width="12" height="12"/>
	</g>
	<g>
		<rect id="p_509_" x="280" y="379" width="12" height="12"/>
	</g>
	<g>
		<rect id="p_510_" x="280" y="415" width="12" height="12"/>
	</g>
	<g>
		<rect id="p_511_" x="280" y="451" width="12" height="12"/>
	</g>
	<g>
		<rect id="p_512_" x="280" y="463" width="12" height="12"/>
	</g>
	<g>
		<rect id="p_513_" x="280" y="487" width="12" height="12"/>
	</g>
	<g>
		<rect id="p_514_" x="280" y="511" width="12" height="12"/>
	</g>
	<g>
		<rect id="p_515_" x="280" y="535" width="12" height="12"/>
	</g>
	<g>
		<rect id="p_516_" x="292" y="295" width="12" height="12"/>
	</g>
	<g>
		<rect id="p_517_" x="292" y="319" width="12" height="12"/>
	</g>
	<g>
		<rect id="p_518_" x="292" y="331" width="12" height="12"/>
	</g>
	<g>
		<rect id="p_519_" x="292" y="355" width="12" height="12"/>
	</g>
	<g>
		<rect id="p_520_" x="292" y="367" width="12" height="12"/>
	</g>
	<g>
		<rect id="p_521_" x="292" y="379" width="12" height="12"/>
	</g>
	<g>
		<rect id="p_522_" x="292" y="391" width="12" height="12"/>
	</g>
	<g>
		<rect id="p_523_" x="292" y="415" width="12" height="12"/>
	</g>
	<g>
		<rect id="p_524_" x="292" y="427" width="12" height="12"/>
	</g>
	<g>
		<rect id="p_525_" x="292" y="463" width="12" height="12"/>
	</g>
	<g>
		<rect id="p_526_" x="292" y="475" width="12" height="12"/>
	</g>
	<g>
		<rect id="p_527_" x="292" y="499" width="12" height="12"/>
	</g>
	<g>
		<rect id="p_528_" x="292" y="511" width="12" height="12"/>
	</g>
	<g>
		<rect id="p_529_" x="292" y="523" width="12" height="12"/>
	</g>
	<g>
		<rect id="p_530_" x="304" y="319" width="12" height="12"/>
	</g>
	<g>
		<rect id="p_531_" x="304" y="415" width="12" height="12"/>
	</g>
	<g>
		<rect id="p_532_" x="304" y="427" width="12" height="12"/>
	</g>
	<g>
		<rect id="p_533_" x="304" y="511" width="12" height="12"/>
	</g>
	<g>
		<rect id="p_534_" x="304" y="523" width="12" height="12"/>
	</g>
	<g>
		<rect id="p_535_" x="316" y="331" width="12" height="12"/>
	</g>
	<g>
		<rect id="p_536_" x="316" y="367" width="12" height="12"/>
	</g>
	<g>
		<rect id="p_537_" x="316" y="391" width="12" height="12"/>
	</g>
	<g>
		<rect id="p_538_" x="316" y="403" width="12" height="12"/>
	</g>
	<g>
		<rect id="p_539_" x="316" y="415" width="12" height="12"/>
	</g>
	<g>
		<rect id="p_540_" x="316" y="451" width="12" height="12"/>
	</g>
	<g>
		<rect id="p_541_" x="316" y="463" width="12" height="12"/>
	</g>
	<g>
		<rect id="p_542_" x="316" y="487" width="12" height="12"/>
	</g>
	<g>
		<rect id="p_543_" x="316" y="499" width="12" height="12"/>
	</g>
	<g>
		<rect id="p_544_" x="316" y="511" width="12" height="12"/>
	</g>
	<g>
		<rect id="p_545_" x="316" y="535" width="12" height="12"/>
	</g>
	<g>
		<rect id="p_546_" x="328" y="403" width="12" height="12"/>
	</g>
	<g>
		<rect id="p_547_" x="328" y="439" width="12" height="12"/>
	</g>
	<g>
		<rect id="p_548_" x="328" y="463" width="12" height="12"/>
	</g>
	<g>
		<rect id="p_549_" x="328" y="475" width="12" height="12"/>
	</g>
	<g>
		<rect id="p_550_" x="328" y="487" width="12" height="12"/>
	</g>
	<g>
		<rect id="p_551_" x="328" y="523" width="12" height="12"/>
	</g>
	<g>
		<rect id="p_552_" x="340" y="295" width="12" height="12"/>
	</g>
	<g>
		<rect id="p_553_" x="340" y="307" width="12" height="12"/>
	</g>
	<g>
		<rect id="p_554_" x="340" y="319" width="12" height="12"/>
	</g>
	<g>
		<rect id="p_555_" x="340" y="331" width="12" height="12"/>
	</g>
	<g>
		<rect id="p_556_" x="340" y="343" width="12" height="12"/>
	</g>
	<g>
		<rect id="p_557_" x="340" y="355" width="12" height="12"/>
	</g>
	<g>
		<rect id="p_558_" x="340" y="367" width="12" height="12"/>
	</g>
	<g>
		<rect id="p_559_" x="340" y="391" width="12" height="12"/>
	</g>
	<g>
		<rect id="p_560_" x="340" y="427" width="12" height="12"/>
	</g>
	<g>
		<rect id="p_561_" x="340" y="463" width="12" height="12"/>
	</g>
	<g>
		<rect id="p_562_" x="340" y="535" width="12" height="12"/>
	</g>
	<g>
		<rect id="p_563_" x="352" y="295" width="12" height="12"/>
	</g>
	<g>
		<rect id="p_564_" x="352" y="367" width="12" height="12"/>
	</g>
	<g>
		<rect id="p_565_" x="352" y="391" width="12" height="12"/>
	</g>
	<g>
		<rect id="p_566_" x="352" y="415" width="12" height="12"/>
	</g>
	<g>
		<rect id="p_567_" x="352" y="439" width="12" height="12"/>
	</g>
	<g>
		<rect id="p_568_" x="352" y="451" width="12" height="12"/>
	</g>
	<g>
		<rect id="p_569_" x="352" y="487" width="12" height="12"/>
	</g>
	<g>
		<rect id="p_570_" x="352" y="499" width="12" height="12"/>
	</g>
	<g>
		<rect id="p_571_" x="352" y="523" width="12" height="12"/>
	</g>
	<g>
		<rect id="p_572_" x="364" y="295" width="12" height="12"/>
	</g>
	<g>
		<rect id="p_573_" x="364" y="319" width="12" height="12"/>
	</g>
	<g>
		<rect id="p_574_" x="364" y="331" width="12" height="12"/>
	</g>
	<g>
		<rect id="p_575_" x="364" y="343" width="12" height="12"/>
	</g>
	<g>
		<rect id="p_576_" x="364" y="367" width="12" height="12"/>
	</g>
	<g>
		<rect id="p_577_" x="364" y="391" width="12" height="12"/>
	</g>
	<g>
		<rect id="p_578_" x="364" y="403" width="12" height="12"/>
	</g>
	<g>
		<rect id="p_579_" x="364" y="427" width="12" height="12"/>
	</g>
	<g>
		<rect id="p_580_" x="364" y="463" width="12" height="12"/>
	</g>
	<g>
		<rect id="p_581_" x="364" y="475" width="12" height="12"/>
	</g>
	<g>
		<rect id="p_582_" x="364" y="487" width="12" height="12"/>
	</g>
	<g>
		<rect id="p_583_" x="364" y="499" width="12" height="12"/>
	</g>
	<g>
		<rect id="p_584_" x="364" y="511" width="12" height="12"/>
	</g>
	<g>
		<rect id="p_585_" x="376" y="295" width="12" height="12"/>
	</g>
	<g>
		<rect id="p_586_" x="376" y="319" width="12" height="12"/>
	</g>
	<g>
		<rect id="p_587_" x="376" y="331" width="12" height="12"/>
	</g>
	<g>
		<rect id="p_588_" x="376" y="343" width="12" height="12"/>
	</g>
	<g>
		<rect id="p_589_" x="376" y="367" width="12" height="12"/>
	</g>
	<g>
		<rect id="p_590_" x="376" y="427" width="12" height="12"/>
	</g>
	<g>
		<rect id="p_591_" x="376" y="439" width="12" height="12"/>
	</g>
	<g>
		<rect id="p_592_" x="376" y="463" width="12" height="12"/>
	</g>
	<g>
		<rect id="p_593_" x="376" y="487" width="12" height="12"/>
	</g>
	<g>
		<rect id="p_594_" x="376" y="523" width="12" height="12"/>
	</g>
	<g>
		<rect id="p_595_" x="388" y="295" width="12" height="12"/>
	</g>
	<g>
		<rect id="p_596_" x="388" y="319" width="12" height="12"/>
	</g>
	<g>
		<rect id="p_597_" x="388" y="331" width="12" height="12"/>
	</g>
	<g>
		<rect id="p_598_" x="388" y="343" width="12" height="12"/>
	</g>
	<g>
		<rect id="p_599_" x="388" y="367" width="12" height="12"/>
	</g>
	<g>
		<rect id="p_600_" x="388" y="391" width="12" height="12"/>
	</g>
	<g>
		<rect id="p_601_" x="388" y="415" width="12" height="12"/>
	</g>
	<g>
		<rect id="p_602_" x="388" y="463" width="12" height="12"/>
	</g>
	<g>
		<rect id="p_603_" x="388" y="511" width="12" height="12"/>
	</g>
	<g>
		<rect id="p_604_" x="400" y="295" width="12" height="12"/>
	</g>
	<g>
		<rect id="p_605_" x="400" y="367" width="12" height="12"/>
	</g>
	<g>
		<rect id="p_606_" x="400" y="391" width="12" height="12"/>
	</g>
	<g>
		<rect id="p_607_" x="400" y="427" width="12" height="12"/>
	</g>
	<g>
		<rect id="p_608_" x="400" y="463" width="12" height="12"/>
	</g>
	<g>
		<rect id="p_609_" x="400" y="487" width="12" height="12"/>
	</g>
	<g>
		<rect id="p_610_" x="400" y="535" width="12" height="12"/>
	</g>
	<g>
		<rect id="p_611_" x="412" y="295" width="12" height="12"/>
	</g>
	<g>
		<rect id="p_612_" x="412" y="307" width="12" height="12"/>
	</g>
	<g>
		<rect id="p_613_" x="412" y="319" width="12" height="12"/>
	</g>
	<g>
		<rect id="p_614_" x="412" y="331" width="12" height="12"/>
	</g>
	<g>
		<rect id="p_615_" x="412" y="343" width="12" height="12"/>
	</g>
	<g>
		<rect id="p_616_" x="412" y="355" width="12" height="12"/>
	</g>
	<g>
		<rect id="p_617_" x="412" y="367" width="12" height="12"/>
	</g>
	<g>
		<rect id="p_618_" x="412" y="403" width="12" height="12"/>
	</g>
	<g>
		<rect id="p_619_" x="412" y="415" width="12" height="12"/>
	</g>
	<g>
		<rect id="p_620_" x="412" y="427" width="12" height="12"/>
	</g>
	<g>
		<rect id="p_621_" x="412" y="451" width="12" height="12"/>
	</g>
	<g>
		<rect id="p_622_" x="412" y="487" width="12" height="12"/>
	</g>
	<g>
		<rect id="p_623_" x="412" y="499" width="12" height="12"/>
	</g>
	<g>
		<rect id="p_624_" x="412" y="511" width="12" height="12"/>
	</g>
</g>
</svg>
