<?xml version="1.0" encoding="utf-8"?>
<!-- Generator: Adobe Illustrator 16.0.0, SVG Export Plug-In . SVG Version: 6.00 Build 0)  -->
<!DOCTYPE svg PUBLIC "-//W3C//DTD SVG 1.1//EN" "http://www.w3.org/Graphics/SVG/1.1/DTD/svg11.dtd">
<svg version="1.1" id="图层_1" xmlns="http://www.w3.org/2000/svg" xmlns:xlink="http://www.w3.org/1999/xlink" x="0px" y="0px"
	 width="500px" height="170px" viewBox="0 0 500 170" enable-background="new 0 0 500 170" xml:space="preserve">
<g>
	<defs>
		<rect id="SVGID_1_" width="500" height="170"/>
	</defs>
	<clipPath id="SVGID_2_">
		<use xlink:href="#SVGID_1_"  overflow="visible"/>
	</clipPath>
	<g clip-path="url(#SVGID_2_)">
		<defs>
			<rect id="SVGID_3_" width="500" height="170"/>
		</defs>
		<clipPath id="SVGID_4_">
			<use xlink:href="#SVGID_3_"  overflow="visible"/>
		</clipPath>
		<g opacity="0" clip-path="url(#SVGID_4_)">
			<g>
				<defs>
					<rect id="SVGID_5_" width="500" height="170"/>
				</defs>
				<clipPath id="SVGID_6_">
					<use xlink:href="#SVGID_5_"  overflow="visible"/>
				</clipPath>
				<rect clip-path="url(#SVGID_6_)" fill="#FFFFFF" width="500" height="170"/>
			</g>
		</g>
		<path clip-path="url(#SVGID_4_)" fill="#32373C" d="M278.62,73.824h-16.854v1.788c5.271,0,6.119,1.13,6.119,7.816V95.48
			c0,6.686-0.848,7.909-6.119,7.909c-4.049-0.564-6.779-2.73-10.547-6.874l-4.33-4.707c5.838-1.036,8.944-4.709,8.944-8.852
			c0-5.178-4.425-9.132-12.711-9.132H226.55v1.788c5.272,0,6.12,1.13,6.12,7.816V95.48c0,6.686-0.847,7.909-6.12,7.909v1.789h18.737
			v-1.789c-5.272,0-6.12-1.224-6.12-7.909v-3.39h1.6l10.451,13.088h27.401c13.465,0,19.303-7.155,19.303-15.726
			C297.923,80.886,292.085,73.824,278.62,73.824 M239.167,89.171V76.648h3.86c4.237,0,6.121,2.918,6.121,6.308
			c0,3.296-1.884,6.214-6.121,6.214H239.167z M278.902,102.26h-0.659c-3.39,0-3.86-0.848-3.86-5.179V76.648h4.52
			c9.792,0,11.582,7.155,11.582,12.711C290.484,95.104,288.694,102.26,278.902,102.26"/>
		<path clip-path="url(#SVGID_4_)" fill="#32373C" d="M174.104,92.656l6.497-19.21c1.884-5.555,1.036-7.155-4.99-7.155v-1.884
			h17.703v1.884c-5.932,0-7.344,1.413-9.699,8.287l-10.735,32.202h-1.223l-9.605-29.472l-9.792,29.472h-1.225l-10.451-32.202
			c-2.26-6.874-3.767-8.287-9.228-8.287v-1.884h20.904v1.884c-5.556,0-7.063,1.318-5.084,7.155l6.308,19.21l9.511-28.25h1.79
			L174.104,92.656z"/>
		<path clip-path="url(#SVGID_4_)" fill="#32373C" d="M206.117,106.402c-10.356,0-18.832-7.626-18.832-16.949
			c0-9.227,8.476-16.854,18.832-16.854c10.358,0,18.832,7.628,18.832,16.854C224.949,98.776,216.475,106.402,206.117,106.402
			 M206.117,75.519c-8.662,0-11.676,7.815-11.676,13.935c0,6.216,3.014,13.938,11.676,13.938c8.758,0,11.771-7.722,11.771-13.938
			C217.888,83.333,214.875,75.519,206.117,75.519"/>
		<path clip-path="url(#SVGID_4_)" fill="#32373C" d="M321.179,103.295v1.883h-21.563v-1.883c6.31,0,7.438-1.6,7.438-11.017V77.213
			c0-9.417-1.129-10.922-7.438-10.922v-1.884h19.491c9.698,0,15.066,4.991,15.066,11.677c0,6.497-5.368,11.581-15.066,11.581h-5.367
			v4.613C313.74,101.695,314.87,103.295,321.179,103.295 M319.107,67.796h-5.367v16.385h5.367c5.273,0,7.721-3.672,7.721-8.097
			C326.828,71.564,324.381,67.796,319.107,67.796"/>
		<path clip-path="url(#SVGID_4_)" fill="#32373C" d="M398.859,96.328l-0.471,1.695c-0.848,3.107-1.884,4.236-8.568,4.236h-1.318
			c-4.896,0-5.743-1.129-5.743-7.815v-4.331c7.344,0,7.909,0.659,7.909,5.556h1.789v-14.03h-1.789c0,4.896-0.565,5.555-7.909,5.555
			V76.648h5.178c6.686,0,7.722,1.13,8.568,4.237l0.472,1.788h1.506l-0.658-8.85h-27.684v1.788c5.272,0,6.12,1.13,6.12,7.816V95.48
			c0,6.116-0.721,7.656-4.877,7.876c-3.951-0.603-6.664-2.759-10.376-6.841l-4.331-4.707c5.839-1.036,8.945-4.709,8.945-8.852
			c0-5.178-4.425-9.132-12.711-9.132h-16.572v1.788c5.272,0,6.12,1.13,6.12,7.816V95.48c0,6.686-0.848,7.909-6.12,7.909v1.789
			h18.737v-1.789c-5.272,0-6.119-1.224-6.119-7.909v-3.39h1.6l10.451,13.088h38.699l0.564-8.851H398.859z M348.957,89.171V76.648
			h3.859c4.237,0,6.121,2.918,6.121,6.308c0,3.296-1.884,6.214-6.121,6.214H348.957z"/>
		<path clip-path="url(#SVGID_4_)" fill="#32373C" d="M417.975,106.402c-3.768,0-7.063-1.977-8.476-3.201
			c-0.471,0.472-1.318,1.884-1.506,3.201h-1.79V93.409h1.883c0.755,6.214,5.085,9.886,10.641,9.886c3.013,0,5.462-1.694,5.462-4.52
			c0-2.447-2.167-4.331-6.026-6.119l-5.367-2.543c-3.767-1.79-6.592-4.896-6.592-9.04c0-4.52,4.237-8.38,10.076-8.38
			c3.107,0,5.742,1.13,7.344,2.448c0.471-0.377,0.941-1.413,1.225-2.543h1.789V83.71h-1.979c-0.658-4.426-3.106-8.098-8.097-8.098
			c-2.637,0-5.085,1.507-5.085,3.861c0,2.448,1.977,3.766,6.498,5.837l5.178,2.543c4.52,2.165,6.309,5.65,6.309,8.475
			C429.461,102.26,424.282,106.402,417.975,106.402"/>
		<path clip-path="url(#SVGID_4_)" fill="#32373C" d="M446.445,106.402c-3.767,0-7.063-1.977-8.475-3.201
			c-0.471,0.472-1.318,1.884-1.506,3.201h-1.79V93.409h1.883c0.755,6.214,5.085,9.886,10.641,9.886c3.013,0,5.462-1.694,5.462-4.52
			c0-2.447-2.167-4.331-6.026-6.119l-5.367-2.543c-3.767-1.79-6.592-4.896-6.592-9.04c0-4.52,4.237-8.38,10.076-8.38
			c3.106,0,5.742,1.13,7.344,2.448c0.471-0.377,0.94-1.413,1.224-2.543h1.789V83.71h-1.978c-0.659-4.426-3.106-8.098-8.097-8.098
			c-2.637,0-5.086,1.507-5.086,3.861c0,2.448,1.978,3.766,6.498,5.837l5.178,2.543c4.521,2.165,6.309,5.65,6.309,8.475
			C457.932,102.26,452.753,106.402,446.445,106.402"/>
		<path clip-path="url(#SVGID_4_)" fill="#32373C" d="M84.746,44.915c5.378,0,10.594,1.053,15.503,3.129
			c2.36,0.998,4.636,2.233,6.765,3.671c2.109,1.426,4.094,3.063,5.896,4.866c1.803,1.803,3.44,3.787,4.865,5.896
			c1.438,2.129,2.674,4.405,3.672,6.765c2.076,4.909,3.129,10.125,3.129,15.503c0,5.378-1.053,10.594-3.129,15.503
			c-0.998,2.359-2.233,4.636-3.672,6.765c-1.425,2.109-3.063,4.094-4.865,5.896s-3.787,3.439-5.896,4.865
			c-2.129,1.438-4.405,2.674-6.765,3.672c-4.909,2.076-10.125,3.129-15.503,3.129s-10.594-1.053-15.503-3.129
			c-2.359-0.998-4.636-2.233-6.765-3.672c-2.11-1.426-4.094-3.063-5.897-4.865c-1.803-1.803-3.439-3.787-4.865-5.896
			c-1.438-2.129-2.674-4.405-3.672-6.765c-2.076-4.909-3.129-10.125-3.129-15.503c0-5.378,1.053-10.595,3.129-15.503
			c0.998-2.359,2.234-4.635,3.672-6.765c1.425-2.11,3.062-4.094,4.865-5.896c1.803-1.803,3.787-3.44,5.897-4.866
			c2.129-1.438,4.405-2.673,6.765-3.671C74.151,45.968,79.367,44.915,84.746,44.915 M84.746,42.373
			c-23.402,0-42.373,18.971-42.373,42.373c0,23.401,18.971,42.373,42.373,42.373s42.373-18.972,42.373-42.373
			C127.119,61.344,108.147,42.373,84.746,42.373"/>
		<path clip-path="url(#SVGID_4_)" fill="#32373C" d="M49.435,84.745c0,13.976,8.122,26.055,19.902,31.778L52.493,70.374
			C50.533,74.766,49.435,79.625,49.435,84.745 M108.583,82.964c0-4.366-1.568-7.387-2.91-9.738c-1.791-2.91-3.469-5.372-3.469-8.282
			c0-3.246,2.461-6.267,5.93-6.267c0.156,0,0.305,0.019,0.457,0.028c-6.282-5.756-14.652-9.271-23.845-9.271
			c-12.337,0-23.189,6.33-29.503,15.915c0.829,0.026,1.61,0.042,2.272,0.042c3.693,0,9.411-0.449,9.411-0.449
			c1.903-0.111,2.127,2.685,0.226,2.91c0,0-1.914,0.225-4.041,0.336l12.857,38.248l7.729-23.175l-5.501-15.073
			c-1.902-0.111-3.703-0.336-3.703-0.336c-1.903-0.112-1.681-3.021,0.224-2.91c0,0,5.83,0.449,9.3,0.449
			c3.692,0,9.412-0.449,9.412-0.449c1.903-0.111,2.127,2.685,0.225,2.91c0,0-1.915,0.225-4.041,0.336l12.761,37.957l3.643-11.543
			C107.635,89.559,108.583,85.984,108.583,82.964 M85.366,87.833L74.77,118.617c3.165,0.932,6.51,1.439,9.976,1.439
			c4.112,0,8.056-0.71,11.726-2.002c-0.094-0.151-0.181-0.312-0.253-0.486L85.366,87.833z M115.732,67.805
			c0.152,1.125,0.238,2.331,0.238,3.631c0,3.582-0.671,7.61-2.686,12.647l-10.785,31.182c10.498-6.12,17.558-17.493,17.558-30.52
			C120.057,78.605,118.487,72.834,115.732,67.805"/>
	</g>
</g>
</svg>
